<svg xmlns="http://www.w3.org/2000/svg" width="240" height="240" viewBox="0 0 120 120"><style>
.cari-head{transform-box:view-box;transform-origin:60px 90px;animation:b 3.6s ease-in-out infinite}
.cari-eyes{transform-box:view-box;transform-origin:60px 55px;animation:k 5s infinite}
@keyframes b{0%,100%{transform:rotate(-3deg)}50%{transform:rotate(3deg) translateY(-1.5px)}}
@keyframes k{0%,94%,100%{transform:scaleY(1)}96%{transform:scaleY(.1)}}
@media (prefers-reduced-motion:reduce){.cari-head,.cari-eyes{animation:none}}
</style><defs><radialGradient id="bg66" cx="50%" cy="30%" r="75%"><stop offset="0" stop-color="#efeaff"></stop><stop offset="1" stop-color="#cfc4ff"></stop></radialGradient><radialGradient id="sk66" cx="40%" cy="35%" r="70%"><stop offset="0" stop-color="#fff" stop-opacity=".35"></stop><stop offset="1" stop-color="#fff" stop-opacity="0"></stop></radialGradient></defs><circle cx="60" cy="60" r="58" fill="url(#bg66)"></circle><g><path d="M20 122 Q22 90 60 88 Q98 90 100 122 Z" fill="#3f3f46"></path><path d="M48 89 L60 104 L72 89 Z" fill="#f4f4f4"></path><path d="M56.5 95 L60 117 L63.5 95 L60 92 Z" fill="#ea580c"></path></g><g class="cari-head"><circle cx="25" cy="56" r="15" fill="#d49a6a" stroke="rgba(0,0,0,.18)" stroke-width="1.5"></circle><circle cx="95" cy="56" r="15" fill="#d49a6a" stroke="rgba(0,0,0,.18)" stroke-width="1.5"></circle><ellipse cx="60" cy="53" rx="36" ry="40" fill="#d49a6a" stroke="rgba(0,0,0,.2)" stroke-width="1.5"></ellipse><ellipse cx="60" cy="53" rx="36" ry="40" fill="url(#sk66)"></ellipse><path d="M30 63 Q34 92 60 94 Q86 92 90 63 Q80 79 60 81 Q40 79 30 63Z" fill="#a16207" opacity=".35"></path><path d="M24 52 Q20 26 33 26 Q29 44 31 54Z M96 52 Q100 26 87 26 Q91 44 89 54Z" fill="#dcdcdc"></path><g stroke="#2b1a0e" stroke-width="4.5" stroke-linecap="round"><line x1="36" y1="43" x2="52" y2="37"></line><line x1="84" y1="43" x2="68" y2="37"></line></g><g class="cari-eyes"><ellipse cx="45" cy="52" rx="7.5" ry="8" fill="white" stroke="rgba(0,0,0,.15)"></ellipse><ellipse cx="75" cy="52" rx="7.5" ry="8" fill="white" stroke="rgba(0,0,0,.15)"></ellipse><circle cx="46.5" cy="53.5" r="3.6" fill="#1a1a1a"></circle><circle cx="73.5" cy="53.5" r="3.6" fill="#1a1a1a"></circle><circle cx="47.6" cy="52.2" r="1.2" fill="#fff"></circle><circle cx="74.6" cy="52.2" r="1.2" fill="#fff"></circle></g><g fill="rgba(180,220,255,.18)" stroke="#111" stroke-width="2.6"><circle cx="45" cy="52" r="11"></circle><circle cx="75" cy="52" r="11"></circle><line x1="56" y1="52" x2="64" y2="52"></line></g><ellipse cx="60" cy="65" rx="10.137708939495496" ry="12.997062742942944" fill="#d49a6a" stroke="rgba(0,0,0,.25)" stroke-width="1.5"></ellipse><ellipse cx="57" cy="60" rx="3.249265685735736" ry="3.8991188228828833" fill="#fff" opacity=".35"></ellipse><ellipse cx="60" cy="82" rx="10" ry="7" fill="#5a1c1c"></ellipse><circle cx="33" cy="68" r="6" fill="#ff6b6b" opacity=".28"></circle><circle cx="87" cy="68" r="6" fill="#ff6b6b" opacity=".28"></circle></g></svg>